<?xml version="1.0" encoding="utf-8"?>
<!-- Generator: Adobe Illustrator 19.2.0, SVG Export Plug-In . SVG Version: 6.00 Build 0)  -->
<svg version="1.1" id="Слой_1" xmlns="http://www.w3.org/2000/svg" xmlns:xlink="http://www.w3.org/1999/xlink" x="0px" y="0px"
	 viewBox="0 0 372.3 93.2" style="enable-background:new 0 0 372.3 93.2;" xml:space="preserve">
<style type="text/css">
	.st0{fill:#1975AB;}
	.st1{fill:#FFFFFF;}
	.st2{fill:#686867;}
</style>
<g>
	<ellipse class="st0" cx="46.6" cy="46.6" rx="46.6" ry="46.6"/>
	<ellipse class="st1" cx="46.6" cy="46.6" rx="39.7" ry="39.3"/>
	<g>
		<path class="st0" d="M48.5,41.3l23.1,32.6H59.8L42,47.9l-7.8,7.8v18.2h-9.5V19.6h9.5v24.6l24-24.6h12L48.5,41.3z"/>
	</g>
	<g>
		<path class="st0" d="M129.5,33.2h-19.8v9.5h17.2v7.1h-17.2v16.7h-8.9V25.7h28.8v7.5H129.5z"/>
		<path class="st0" d="M159.3,66.4h-7.7v-4.2c-2.2,3.3-5.4,5-9.6,5c-6.4,0-10.3-3.5-10.3-10.5V36.8h8.2v16.9c0,3.7,0.3,6.7,5,6.7
			c5.1,0,6.4-3.9,6.4-8.4V36.8h8.1v29.6H159.3z"/>
		<path class="st0" d="M182.8,66.4V49.2c0-3.7-0.7-6.4-5-6.4c-4.9,0-6.4,3.5-6.4,7.8v15.9h-8.1V36.9h7.7V41c2.3-3.2,5.6-4.9,9.8-4.9
			c6.2,0,10.3,3.7,10.3,10.6v19.8L182.8,66.4L182.8,66.4z"/>
		<path class="st0" d="M216.1,66.4v-3.7c-1.9,3-4.9,4.6-8.9,4.6c-8.2,0-13.4-6.1-13.4-15.7c0-9.3,5.1-15.5,12.9-15.5
			c3.5,0,7.1,1.4,9,4.5V25.7h8.1v40.8L216.1,66.4L216.1,66.4z M208.9,42.5c-4.4,0-7,3.4-7,9.1s2.6,9.2,7,9.2c4.5,0,7-3.3,7-9.1
			C216,45.9,213.3,42.5,208.9,42.5z"/>
	</g>
	<g>
		<path class="st2" d="M270.8,66.5h-3.7V41.8c0-4.3,0.2-8.5,0.5-12.8c-0.8,2.5-1.7,5-2.7,7.4l-12.1,30.1h-3.5L237,36.7
			c-1-2.5-1.9-5-2.7-7.5c0.3,4.2,0.5,8.3,0.5,12.5v24.8h-3.7V25.7h5.3l11.9,29.1c1,2.5,1.9,5.1,2.8,7.7c0.9-2.5,1.7-5.1,2.7-7.6
			l11.7-29.3h5.3L270.8,66.5L270.8,66.5z"/>
		<path class="st2" d="M288.8,67.4c-8.2,0-13.6-6-13.6-15.4c0-9.3,5.6-15.9,13.5-15.9c8.7,0,13,7.2,13,15.4v1h-22.8
			c0,6.2,2.9,11.9,10,11.9c4.7,0,7.9-2.6,9-7.7h3.5C300.2,63.3,295.8,67.4,288.8,67.4z M288.6,39.2c-6.4,0-9,5-9.7,10.5h19.2
			C297.7,43.1,294.1,39.2,288.6,39.2z"/>
		<path class="st2" d="M331.2,66.5h-3.3v-5.8c-1.8,4.5-5.8,6.7-10.6,6.7c-8.2,0-13.3-6-13.3-15.6c0-9.5,5.2-15.6,13.2-15.6
			c4.7,0,8.6,2.1,10.5,6.4V25.7h3.5L331.2,66.5L331.2,66.5z M307.6,51.7c0,7.8,3.9,12.7,10.1,12.7c6.3,0,10.2-4.8,10.2-12.7
			c0-6.4-3-12.6-10.2-12.6C311.5,39.1,307.6,44,307.6,51.7z"/>
		<path class="st2" d="M340.5,31.4h-3.6v-5.9h3.6V31.4z M340.5,66.5h-3.6V37h3.6V66.5z"/>
		<path class="st2" d="M371.9,66.3c-1,0.3-1.8,0.5-2.9,0.5c-3.5,0-3.9-2.7-3.9-5.4c-2.4,3.8-6.2,5.9-11.2,5.9c-6,0-9.7-3.1-9.7-8.3
			c0-5.4,3.7-8.4,11-9.1c4.7-0.5,7.2-0.6,8.6-1.5c0.7-0.5,1-1.3,1-2.8c0-4.9-3-6.4-7.7-6.4c-5,0-7.6,2.2-8,6.9h-3.4
			c0.3-6.3,4.6-9.9,11.9-9.9c6.7,0,10.9,2.9,10.9,8.5v16c0,1.8-0.1,3,2,3c0.5,0,0.7,0,1.4-0.2L371.9,66.3L371.9,66.3z M357,52.5
			c-3.7,0.5-8.8,1.4-8.8,6.2c0,3.4,2.6,5.6,6.8,5.6c5.4,0,10.1-3.4,10.1-9.1v-4.8C363.9,51.7,361,52,357,52.5z"/>
	</g>
	<g>
		<path class="st0" d="M109.2,74.8h-7.3v4.4h6.8v1h-6.8V85h7.3v1h-8.5V73.9h8.4v0.9H109.2z"/>
		<path class="st0" d="M112,78.8c0.7-1.2,1.6-1.9,3.1-1.9c1.7,0,3,0.9,3,3v5.9H117v-5.6c0-1.8-0.9-2.4-2.2-2.4
			c-1.6,0-2.8,1.1-2.8,3.3v4.7h-1.1v-8.7h1v1.7H112z"/>
		<path class="st0" d="M123.9,78h-1.8v5.5c0,0.9,0,1.5,1.1,1.5c0.2,0,0.4,0,0.7-0.1v0.9c-0.4,0.1-0.6,0.1-0.9,0.1
			c-0.8,0-1.6-0.2-1.8-1c-0.1-0.4-0.1-0.6-0.1-1.9v-5h-1.6v-0.9h1.6v-2.7h1.1v2.7h1.8V78H123.9z"/>
		<path class="st0" d="M130.2,78.1c-0.1,0-0.2,0-0.3,0c-1.3,0-2.5,0.8-2.8,2.1c-0.1,0.5-0.2,1-0.2,2.2V86h-1.1v-8.7h1v2.1
			c0.7-1.6,1.6-2.2,3.3-2.2v0.9H130.2z"/>
		<path class="st0" d="M134.6,86.2c-2.4,0-4-1.8-4-4.6s1.7-4.7,4-4.7c2.6,0,3.9,2.1,3.9,4.6v0.3h-6.8c0,1.8,0.9,3.5,3,3.5
			c1.4,0,2.3-0.8,2.7-2.3h1C137.9,84.9,136.6,86.2,134.6,86.2z M134.5,77.8c-1.9,0-2.7,1.5-2.9,3.1h5.7
			C137.2,79,136.2,77.8,134.5,77.8z"/>
		<path class="st0" d="M141.2,78.8c0.6-1.3,1.7-1.9,3.1-1.9c2.4,0,4,1.9,4,4.7c0,2.8-1.6,4.6-3.9,4.6c-1.4,0-2.5-0.6-3.1-1.9v4.9h-1
			v-12h1v1.6H141.2z M141.2,81.5c0,2.3,1.2,3.7,3,3.7s3-1.5,3-3.7c0-2.3-1.2-3.8-3-3.8C142.3,77.8,141.2,79.2,141.2,81.5z"/>
		<path class="st0" d="M154.7,78.1c-0.1,0-0.2,0-0.3,0c-1.3,0-2.5,0.8-2.8,2.1c-0.1,0.5-0.2,1-0.2,2.2V86h-1.1v-8.7h1v2.1
			c0.7-1.6,1.6-2.2,3.3-2.2v0.9H154.7z"/>
		<path class="st0" d="M159.1,86.2c-2.4,0-4-1.8-4-4.6s1.7-4.7,4-4.7c2.6,0,3.9,2.1,3.9,4.6v0.3h-6.8c0,1.8,0.9,3.5,3,3.5
			c1.4,0,2.3-0.8,2.7-2.3h1C162.5,84.9,161.1,86.2,159.1,86.2z M159,77.8c-1.9,0-2.7,1.5-2.9,3.1h5.7C161.7,79,160.7,77.8,159,77.8z
			"/>
		<path class="st0" d="M165.7,78.8c0.7-1.2,1.6-1.9,3.1-1.9c1.7,0,3,0.9,3,3v5.9h-1.1v-5.6c0-1.8-0.9-2.4-2.2-2.4
			c-1.6,0-2.8,1.1-2.8,3.3v4.7h-1.1v-8.7h1v1.7H165.7z"/>
		<path class="st0" d="M177.6,86.2c-2.4,0-4-1.8-4-4.6s1.7-4.7,4-4.7c2.6,0,3.9,2.1,3.9,4.6v0.3h-6.8c0,1.8,0.9,3.5,3,3.5
			c1.4,0,2.3-0.8,2.7-2.3h1C181,84.9,179.7,86.2,177.6,86.2z M177.6,77.8c-1.9,0-2.7,1.5-2.9,3.1h5.7
			C180.3,79,179.2,77.8,177.6,77.8z"/>
		<path class="st0" d="M190.3,85.9h-1v-1.6c-0.6,1.2-1.6,1.9-3.1,1.9c-1.8,0-3-1.1-3-3.2v-5.8h1.1v5.4c0,1.7,0.5,2.7,2.2,2.7
			c1.8,0,2.7-1.5,2.7-3.2v-4.8h1.1L190.3,85.9L190.3,85.9z"/>
		<path class="st0" d="M197.1,78.1c-0.1,0-0.2,0-0.3,0c-1.3,0-2.5,0.8-2.8,2.1c-0.1,0.5-0.2,1-0.2,2.2V86h-1.1v-8.7h1v2.1
			c0.7-1.6,1.6-2.2,3.3-2.2v0.9H197.1z"/>
		<path class="st0" d="M203.5,79.7c-0.1-1.3-1-1.9-2.4-1.9c-1.3,0-2,0.6-2,1.4c0,1.1,0.9,1.3,2.5,1.6c1.4,0.3,3.3,0.8,3.3,2.6
			c0,1.6-1.4,2.7-3.5,2.7c-2.3,0-3.6-1.1-3.6-3.1h1c0,1.5,1,2.2,2.6,2.2c1.4,0,2.4-0.7,2.4-1.7c0-1.2-1.5-1.5-2.4-1.7
			c-1.4-0.3-3.4-0.6-3.4-2.5c0-1.5,1.2-2.5,3.2-2.5c1.9,0,3.3,0.9,3.3,2.8h-1V79.7z"/>
		<path class="st0" d="M207.8,78.8c0.6-1.3,1.6-1.9,3-1.9c2,0,3.1,1.2,3.1,3.2v5.8h-1.1v-5.6c0-1.5-0.7-2.4-2.3-2.4
			c-2,0-2.8,1.6-2.8,3.5V86h-1.1V73.9h1.1C207.8,79.1,207.8,78.1,207.8,78.8z"/>
		<path class="st0" d="M217.2,75.5h-1.1v-1.8h1.1V75.5z M217.2,85.9h-1.1v-8.7h1.1V85.9z"/>
		<path class="st0" d="M220.6,78.8c0.6-1.3,1.7-1.9,3.1-1.9c2.4,0,4,1.9,4,4.7c0,2.8-1.6,4.6-3.9,4.6c-1.4,0-2.5-0.6-3.1-1.9v4.9h-1
			v-12h1v1.6H220.6z M220.6,81.5c0,2.3,1.2,3.7,3,3.7s3-1.5,3-3.7c0-2.3-1.2-3.8-3-3.8C221.8,77.8,220.6,79.2,220.6,81.5z"/>
		<path class="st0" d="M231.7,85.9h-1.4v-1.8h1.4V85.9z"/>
		<path class="st0" d="M248.3,74.8H241v4.4h6.8v1H241V85h7.3v1h-8.5V73.9h8.4v0.9H248.3z"/>
		<path class="st0" d="M257.7,85.9h-1v-1.7c-0.5,1.3-1.7,2-3.2,2c-2.4,0-4-1.8-4-4.6c0-2.8,1.5-4.6,3.9-4.6c1.4,0,2.6,0.6,3.1,1.9
			v-5h1v12H257.7z M250.7,81.5c0,2.3,1.2,3.8,3,3.8c1.9,0,3-1.4,3-3.8c0-1.9-0.9-3.7-3-3.7C251.9,77.8,250.7,79.2,250.7,81.5z"/>
		<path class="st0" d="M267.2,85.9h-1v-1.6c-0.6,1.2-1.6,1.9-3.1,1.9c-1.8,0-3-1.1-3-3.2v-5.8h1.1v5.4c0,1.7,0.5,2.7,2.2,2.7
			c1.8,0,2.7-1.5,2.7-3.2v-4.8h1.1L267.2,85.9L267.2,85.9z"/>
		<path class="st0" d="M273.2,86.1c-2.5,0-4.1-1.8-4.1-4.5c0-2.9,1.6-4.7,4.1-4.7c2,0,3.4,1.1,3.6,3h-1.1c-0.3-1.4-1.1-2.1-2.5-2.1
			c-1.8,0-3,1.5-3,3.7c0,2.3,1.1,3.7,2.9,3.7c1.5,0,2.5-0.9,2.7-2.5h1.1C276.6,84.7,275.3,86.1,273.2,86.1z"/>
		<path class="st0" d="M286.3,85.8c-0.3,0.1-0.5,0.1-0.9,0.1c-1,0-1.1-0.8-1.1-1.6c-0.7,1.1-1.8,1.8-3.3,1.8c-1.8,0-2.9-0.9-2.9-2.4
			c0-1.6,1.1-2.5,3.3-2.7c1.4-0.1,2.1-0.2,2.6-0.5c0.2-0.2,0.3-0.4,0.3-0.8c0-1.4-0.9-1.9-2.3-1.9c-1.5,0-2.3,0.6-2.4,2.1h-1
			c0.1-1.9,1.4-2.9,3.5-2.9c2,0,3.2,0.9,3.2,2.5v4.8c0,0.5,0,0.9,0.6,0.9c0.1,0,0.2,0,0.4-0.1L286.3,85.8L286.3,85.8z M281.9,81.7
			c-1.1,0.2-2.6,0.4-2.6,1.8c0,1,0.8,1.7,2,1.7c1.6,0,3-1,3-2.7v-1.4C283.9,81.5,283.1,81.6,281.9,81.7z"/>
		<path class="st0" d="M291.3,78h-1.9v5.5c0,0.9,0,1.5,1.1,1.5c0.2,0,0.4,0,0.7-0.1v0.9c-0.4,0.1-0.6,0.1-0.9,0.1
			c-0.8,0-1.6-0.2-1.8-1c-0.1-0.4-0.1-0.6-0.1-1.9v-5h-1.6v-0.9h1.6v-2.7h1.1v2.7h1.8L291.3,78L291.3,78z"/>
		<path class="st0" d="M294.2,75.5h-1.1v-1.8h1.1V75.5z M294.2,85.9h-1.1v-8.7h1.1V85.9z"/>
		<path class="st0" d="M304.4,81.5c0,2.8-1.6,4.6-4.1,4.6c-2.6,0-4.2-1.8-4.2-4.6c0-2.8,1.6-4.6,4.2-4.6
			C302.7,76.9,304.4,78.7,304.4,81.5z M297.1,81.5c0,2.3,1.2,3.7,3.1,3.7c1.9,0,3-1.4,3-3.7c0-2.3-1.2-3.7-3.1-3.7
			C298.3,77.8,297.1,79.3,297.1,81.5z"/>
		<path class="st0" d="M307.2,78.8c0.7-1.2,1.6-1.9,3.1-1.9c1.7,0,3,0.9,3,3v5.9h-1.1v-5.6c0-1.8-0.9-2.4-2.2-2.4
			c-1.6,0-2.8,1.1-2.8,3.3v4.7h-1.1v-8.7h1L307.2,78.8L307.2,78.8z"/>
		<path class="st0" d="M317.7,85.9h-1.4v-1.8h1.4V85.9z"/>
		<path class="st0" d="M331.1,73.8c2,0,3.8,0.9,3.8,3c0,1.3-1,2.4-2.1,2.7c1.3,0.3,2.6,1.1,2.6,2.9c0,2.3-1.9,3.5-4.1,3.5h-5.4V73.8
			H331.1z M327,79.1h3.9c1.4,0,2.9-0.5,2.9-2.2c0-1.9-1.6-2.2-3.2-2.2H327L327,79.1L327,79.1z M327,84.9h3.6c1.7,0,3.6-0.3,3.6-2.5
			c0-2.1-2-2.4-3.6-2.4H327V84.9z"/>
		<path class="st0" d="M345.2,81.5c0,2.8-1.6,4.6-4.1,4.6c-2.6,0-4.2-1.8-4.2-4.6c0-2.8,1.6-4.6,4.2-4.6
			C343.6,76.9,345.2,78.7,345.2,81.5z M338,81.5c0,2.3,1.2,3.7,3.1,3.7c1.9,0,3-1.4,3-3.7c0-2.3-1.2-3.7-3.1-3.7
			C339.2,77.8,338,79.3,338,81.5z"/>
		<path class="st0" d="M354.9,81.5c0,2.8-1.6,4.6-4.1,4.6c-2.6,0-4.2-1.8-4.2-4.6c0-2.8,1.6-4.6,4.2-4.6
			C353.3,76.9,354.9,78.7,354.9,81.5z M347.7,81.5c0,2.3,1.2,3.7,3.1,3.7c1.9,0,3-1.4,3-3.7c0-2.3-1.2-3.7-3.1-3.7
			C348.9,77.8,347.7,79.3,347.7,81.5z"/>
		<path class="st0" d="M360.5,80.4l4,5.5h-1.3l-3.5-4.8l-1.7,1.5v3.3h-1V73.8h1v7.6l4.9-4.3h1.4L360.5,80.4z"/>
		<path class="st0" d="M370.9,79.7c-0.1-1.3-1-1.9-2.4-1.9c-1.3,0-2,0.6-2,1.4c0,1.1,0.9,1.3,2.5,1.6c1.4,0.3,3.3,0.8,3.3,2.6
			c0,1.6-1.4,2.7-3.5,2.7c-2.3,0-3.6-1.1-3.6-3.1h1c0,1.5,1,2.2,2.6,2.2c1.4,0,2.4-0.7,2.4-1.7c0-1.2-1.5-1.5-2.4-1.7
			c-1.4-0.3-3.4-0.6-3.4-2.5c0-1.5,1.2-2.5,3.2-2.5c1.9,0,3.3,0.9,3.3,2.8h-1V79.7z"/>
	</g>
</g>
</svg>
