<?xml version="1.0" encoding="utf-8"?>
<!-- Generator: Adobe Illustrator 19.2.0, SVG Export Plug-In . SVG Version: 6.00 Build 0)  -->
<svg version="1.1" id="Layer_1" xmlns="http://www.w3.org/2000/svg" xmlns:xlink="http://www.w3.org/1999/xlink" x="0px" y="0px"
	 width="410.4px" height="63.4px" viewBox="0 0 410.4 63.4" enable-background="new 0 0 410.4 63.4" xml:space="preserve">
<g>
	<path fill="#FFFFFF" d="M10.9,43.1h20.4v8.4H0V1.4h10.9V43.1z"/>
	<path fill="#FFFFFF" d="M26.3,15.9h8.3c0.7,0,1.3,0.2,1.8,0.5s0.8,0.7,1,1.2l6.3,17.6c0.4,1.2,0.8,2.4,1.1,3.5s0.6,2.3,0.8,3.4
		c0.3-1.2,0.6-2.3,0.9-3.4c0.3-1.1,0.7-2.3,1.1-3.5l6.5-17.6c0.2-0.5,0.5-0.9,1-1.2c0.5-0.3,1.1-0.5,1.7-0.5h7.9L50,51.5h-9.1
		L26.3,15.9z"/>
	<path fill="#FFFFFF" d="M80.6,5.8c0,0.8-0.2,1.6-0.5,2.2c-0.3,0.7-0.8,1.3-1.4,1.8c-0.6,0.5-1.2,0.9-2,1.2
		c-0.8,0.3-1.6,0.4-2.5,0.4c-0.8,0-1.6-0.1-2.3-0.4s-1.4-0.7-1.9-1.2c-0.6-0.5-1-1.1-1.3-1.8c-0.3-0.7-0.5-1.4-0.5-2.2
		s0.2-1.6,0.5-2.3C69,2.8,69.5,2.2,70,1.7c0.6-0.5,1.2-0.9,1.9-1.2c0.7-0.3,1.5-0.4,2.3-0.4c0.9,0,1.7,0.2,2.5,0.4
		c0.8,0.3,1.4,0.7,2,1.2s1,1.1,1.4,1.8S80.6,5,80.6,5.8z M79.4,15.9v35.6h-10V15.9H79.4z"/>
	<path fill="#FFFFFF" d="M84,15.9h8.3c0.7,0,1.3,0.2,1.8,0.5s0.8,0.7,1,1.2l6.3,17.6c0.4,1.2,0.8,2.4,1.1,3.5s0.6,2.3,0.8,3.4
		c0.3-1.2,0.6-2.3,0.9-3.4c0.3-1.1,0.7-2.3,1.1-3.5l6.5-17.6c0.2-0.5,0.5-0.9,1-1.2c0.5-0.3,1.1-0.5,1.7-0.5h7.9l-14.7,35.6h-9.1
		L84,15.9z"/>
	<path fill="#FFFFFF" d="M119,2.1c1.2-0.5,3.5-0.3,5.7-0.4c11.2,0.1,34.6-0.3,34.6-0.3v4.2v4.2h-7.7h-7.7v20.9v20.9h-5.4H133V30.7
		V9.8h-7.7h-10.6c0,0,0.9-2.7,1.4-3.9C116.9,3.7,117.7,2.7,119,2.1"/>
	<path fill="#FFFFFF" d="M172.1,15.4c2.4,0,4.6,0.4,6.6,1.1s3.8,1.8,5.2,3.2c1.5,1.4,2.6,3.1,3.4,5.1c0.8,2,1.2,4.3,1.2,6.9
		c0,0.7,0,1.3-0.1,1.8s-0.2,0.8-0.4,1.1c-0.2,0.3-0.4,0.5-0.7,0.6s-0.7,0.2-1.1,0.2h-22.5c0.3,3.3,1.3,5.8,3,7.3s3.9,2.3,6.6,2.3
		c1.4,0,2.6-0.2,3.6-0.5s1.9-0.7,2.7-1c0.8-0.4,1.5-0.7,2.1-1s1.2-0.5,1.8-0.5c0.8,0,1.4,0.3,1.8,0.8l2.9,3.5
		c-1.1,1.2-2.2,2.1-3.5,2.9s-2.6,1.4-4,1.8s-2.8,0.8-4.2,0.9c-1.4,0.2-2.8,0.3-4.1,0.3c-2.6,0-5.1-0.4-7.3-1.2
		c-2.3-0.8-4.2-2-5.9-3.6s-3-3.6-4-6s-1.5-5.1-1.5-8.3c0-2.4,0.4-4.7,1.3-6.8c0.8-2.1,2-4,3.6-5.6s3.5-2.9,5.7-3.8
		C166.7,15.8,169.3,15.4,172.1,15.4z M172.3,22.1c-2.4,0-4.3,0.6-5.6,2c-1.4,1.3-2.2,3.1-2.7,5.5h15.6c0-1-0.1-1.9-0.4-2.8
		c-0.3-0.9-0.7-1.7-1.3-2.4c-0.6-0.7-1.4-1.2-2.3-1.6C174.7,22.3,173.6,22.1,172.3,22.1z"/>
	<path fill="#FFFFFF" d="M222.1,23.9c-0.3,0.4-0.6,0.7-0.9,0.8c-0.3,0.2-0.7,0.3-1.2,0.3s-1-0.1-1.4-0.4s-1-0.6-1.5-0.9
		c-0.6-0.3-1.3-0.6-2.1-0.9s-1.8-0.4-3-0.4c-1.5,0-2.8,0.3-3.9,0.8c-1.1,0.5-2,1.3-2.7,2.2c-0.7,1-1.3,2.1-1.6,3.5
		c-0.4,1.4-0.5,2.9-0.5,4.7c0,3.6,0.8,6.4,2.3,8.4c1.5,1.9,3.6,2.9,6.3,2.9c0.9,0,1.7-0.1,2.4-0.2s1.2-0.3,1.7-0.6
		c0.5-0.2,0.9-0.5,1.3-0.8s0.7-0.5,1-0.8c0.3-0.2,0.7-0.4,1-0.6c0.3-0.1,0.7-0.2,1.1-0.2c0.8,0,1.4,0.3,1.8,0.8l2.9,3.5
		c-1.1,1.2-2.2,2.1-3.4,2.9s-2.5,1.4-3.8,1.8s-2.6,0.8-3.9,0.9c-1.3,0.2-2.7,0.3-4,0.3c-2.3,0-4.5-0.4-6.5-1.2
		c-2.1-0.8-3.9-2-5.4-3.6c-1.6-1.6-2.8-3.5-3.7-5.8s-1.4-4.9-1.4-7.8c0-2.6,0.4-5,1.2-7.3c0.8-2.2,2-4.2,3.5-5.8
		c1.6-1.6,3.5-2.9,5.8-3.9c2.3-0.9,4.9-1.4,7.9-1.4c2.9,0,5.4,0.4,7.5,1.3c2.2,0.9,4.1,2.1,5.8,3.8L222.1,23.9z"/>
	<path fill="#FFFFFF" d="M230.1,51.5V0h10v19.4c1.4-1.2,2.9-2.2,4.6-3c1.7-0.7,3.7-1.1,6-1.1c2,0,3.8,0.3,5.4,1
		c1.6,0.7,2.9,1.6,4,2.8c1.1,1.2,1.9,2.6,2.4,4.3s0.8,3.5,0.8,5.5v22.6h-10V28.9c0-2-0.5-3.5-1.5-4.6s-2.4-1.6-4.3-1.6
		c-1.4,0-2.8,0.3-4,0.9S241.1,25,240,26v25.6L230.1,51.5L230.1,51.5z"/>
	<path fill="#EF8D21" d="M269.7,46.6c0-0.8,0.1-1.5,0.4-2.1c0.3-0.7,0.7-1.3,1.2-1.7c0.5-0.5,1.1-0.9,1.8-1.2
		c0.7-0.3,1.5-0.4,2.3-0.4s1.6,0.1,2.3,0.4s1.3,0.7,1.8,1.2s0.9,1.1,1.2,1.7c0.3,0.7,0.5,1.4,0.5,2.1c0,0.8-0.2,1.5-0.5,2.2
		s-0.7,1.2-1.2,1.7s-1.1,0.9-1.8,1.1c-0.7,0.3-1.5,0.4-2.3,0.4s-1.6-0.1-2.3-0.4s-1.3-0.7-1.8-1.1c-0.5-0.5-0.9-1.1-1.2-1.7
		C269.8,48.1,269.7,47.3,269.7,46.6z"/>
	<path fill="#FFFFFF" d="M324.7,41.3c0.4,0,0.7,0.2,1,0.4l2.8,2.9c-2.1,2.3-4.7,4.2-7.8,5.5c-3,1.3-6.7,2-11,2
		c-3.7,0-7.1-0.6-10.2-1.8c-3.1-1.2-5.7-3-7.8-5.2c-2.2-2.2-3.8-4.9-5-8s-1.8-6.5-1.8-10.3c0-3.7,0.6-7.2,1.9-10.3
		c1.2-3.1,3-5.8,5.2-8s4.9-4,8.1-5.2c3.1-1.2,6.6-1.8,10.4-1.8c3.7,0,7,0.6,9.8,1.7s5.3,2.7,7.5,4.6l-2.3,3.1
		c-0.1,0.2-0.3,0.4-0.6,0.6c-0.2,0.2-0.5,0.2-0.9,0.2s-1-0.2-1.6-0.7s-1.5-1-2.5-1.5s-2.3-1.1-3.8-1.5s-3.4-0.7-5.6-0.7
		c-2.7,0-5.2,0.4-7.4,1.3s-4.2,2.2-5.8,3.9c-1.6,1.7-2.9,3.7-3.8,6.2c-0.9,2.4-1.3,5.1-1.3,8.2s0.5,5.8,1.4,8.3
		c0.9,2.4,2.2,4.5,3.8,6.1c1.6,1.7,3.5,2.9,5.7,3.8s4.6,1.3,7.1,1.3c1.6,0,3-0.1,4.2-0.3c1.2-0.2,2.4-0.4,3.5-0.8s2-0.8,2.9-1.4
		s1.8-1.2,2.7-2C323.8,41.5,324.3,41.3,324.7,41.3z"/>
	<path fill="#FFFFFF" d="M343.4,5.6c0,0.6-0.1,1.2-0.4,1.7c-0.3,0.5-0.6,1-1,1.4s-0.9,0.7-1.5,1c-0.6,0.2-1.2,0.3-1.8,0.3
		s-1.2-0.1-1.8-0.3c-0.5-0.2-1-0.5-1.4-1c-0.4-0.4-0.7-0.9-1-1.4c-0.2-0.5-0.4-1.1-0.4-1.7s0.1-1.2,0.4-1.7c0.2-0.5,0.6-1,1-1.4
		s0.9-0.7,1.4-1c0.5-0.2,1.1-0.3,1.8-0.3c0.6,0,1.2,0.1,1.8,0.3c0.6,0.2,1.1,0.5,1.5,1c0.4,0.4,0.8,0.9,1,1.4S343.4,5,343.4,5.6z
		 M342,16.5v35h-6.5v-35H342z"/>
	<path fill="#FFFFFF" d="M363.9,52.1c-2.9,0-5.1-0.8-6.7-2.3c-1.6-1.5-2.3-3.8-2.3-6.7V21.7h-4.4c-0.4,0-0.7-0.1-1-0.3
		c-0.3-0.2-0.4-0.6-0.4-1v-2.5l6-0.7l1.5-10.8c0.1-0.3,0.2-0.6,0.5-0.8c0.3-0.2,0.6-0.3,1-0.3h3.3v12.1h10.7v4.5h-10.7v21
		c0,1.5,0.4,2.6,1.1,3.3c0.8,0.7,1.7,1.1,2.9,1.1c0.7,0,1.3-0.1,1.8-0.3c0.5-0.2,0.9-0.4,1.3-0.6c0.4-0.2,0.7-0.4,0.9-0.6
		c0.3-0.2,0.5-0.3,0.7-0.3c0.3,0,0.6,0.2,0.9,0.6l1.9,2.9c-1.1,1-2.5,1.8-4,2.3C367.2,51.8,365.6,52.1,363.9,52.1z"/>
	<path fill="#FFFFFF" d="M389.9,61.9c-0.2,0.5-0.5,0.8-0.8,1.1c-0.3,0.3-0.8,0.4-1.5,0.4h-4.8l6.7-13.9l-15.2-33h5.6
		c0.6,0,1,0.1,1.3,0.4s0.6,0.6,0.7,0.9l9.9,22c0.2,0.5,0.4,1,0.5,1.5c0.2,0.5,0.3,1,0.4,1.5c0.3-1,0.7-2.1,1.1-3.1l9.6-22
		c0.1-0.4,0.4-0.7,0.7-0.9c0.4-0.2,0.7-0.4,1.2-0.4h5.1L389.9,61.9z"/>
</g>
<g>
</g>
<g>
</g>
<g>
</g>
<g>
</g>
<g>
</g>
<g>
</g>
</svg>
