<svg id="Layer_1" data-name="Layer 1" xmlns="http://www.w3.org/2000/svg" viewBox="0 0 410.4 63.32"><defs><style>.cls-1{fill:#1d1d1b;}.cls-2{fill:#f7901e;}</style></defs><title>logo(black)</title><path class="cls-1" d="M10.9,43H31.3v8.4H0V1.3H10.9Z" transform="translate(0 0)"/><path class="cls-1" d="M26.3,15.8h8.3a3.45,3.45,0,0,1,1.8.5,2.34,2.34,0,0,1,1,1.2l6.3,17.6c.4,1.2.8,2.4,1.1,3.5s.6,2.3.8,3.4c.3-1.2.6-2.3.9-3.4s.7-2.3,1.1-3.5l6.5-17.6a2.34,2.34,0,0,1,1-1.2,3.37,3.37,0,0,1,1.7-.5h7.9L50,51.4H40.9Z" transform="translate(0 0)"/><path class="cls-1" d="M80.6,5.7a5.09,5.09,0,0,1-.5,2.2,4.89,4.89,0,0,1-1.4,1.8,6.66,6.66,0,0,1-2,1.2,6.9,6.9,0,0,1-2.5.4,5.87,5.87,0,0,1-2.3-.4A6.15,6.15,0,0,1,70,9.7a4.63,4.63,0,0,1-1.3-1.8,5.45,5.45,0,0,1-.5-2.2,5.93,5.93,0,0,1,.5-2.3A5.94,5.94,0,0,1,70,1.6,7.61,7.61,0,0,1,71.9.4,5.87,5.87,0,0,1,74.2,0a10.05,10.05,0,0,1,2.5.4,6.66,6.66,0,0,1,2,1.2,6.23,6.23,0,0,1,1.4,1.8A6.35,6.35,0,0,1,80.6,5.7ZM79.4,15.8V51.4h-10V15.8Z" transform="translate(0 0)"/><path class="cls-1" d="M83.9,15.8h8.3a3.45,3.45,0,0,1,1.8.5,2.34,2.34,0,0,1,1,1.2l6.3,17.6c.4,1.2.8,2.4,1.1,3.5s.6,2.3.8,3.4c.3-1.2.6-2.3.9-3.4s.7-2.3,1.1-3.5l6.5-17.6a2.34,2.34,0,0,1,1-1.2,3.37,3.37,0,0,1,1.7-.5h7.9L107.6,51.4H98.5Z" transform="translate(0 0)"/><path class="cls-1" d="M119,2.1c1.2-.5,3.5-.3,5.7-.4,11.2.1,34.6-.3,34.6-.3V9.8H143.9V51.6h-11V9.8H114.6s.9-2.7,1.4-3.9c.8-2.2,1.6-3.3,3-3.8" transform="translate(0 0)"/><path class="cls-1" d="M172.1,15.3a19.86,19.86,0,0,1,6.6,1.1,14.3,14.3,0,0,1,8.6,8.3,18.48,18.48,0,0,1,1.2,6.9,9.72,9.72,0,0,1-.1,1.8,2.82,2.82,0,0,1-.4,1.1,1.34,1.34,0,0,1-.7.6,3.59,3.59,0,0,1-1.1.2H163.7c.3,3.3,1.3,5.8,3,7.3a9.64,9.64,0,0,0,6.6,2.3,12.5,12.5,0,0,0,3.6-.5c1-.3,1.9-.7,2.7-1a20.92,20.92,0,0,0,2.1-1,4.07,4.07,0,0,1,1.8-.5,2.2,2.2,0,0,1,1.8.8l2.9,3.5a16.65,16.65,0,0,1-7.5,4.7,21,21,0,0,1-4.2.9,29.34,29.34,0,0,1-4.1.3,21.5,21.5,0,0,1-7.3-1.2,16.18,16.18,0,0,1-5.9-3.6,17.07,17.07,0,0,1-4-6,21.2,21.2,0,0,1-1.5-8.3,17.16,17.16,0,0,1,1.3-6.8,15.84,15.84,0,0,1,3.6-5.6,17.26,17.26,0,0,1,5.7-3.8A20.08,20.08,0,0,1,172.1,15.3Zm.2,6.7c-2.4,0-4.3.6-5.6,2a9.87,9.87,0,0,0-2.7,5.5h15.6a8.63,8.63,0,0,0-.4-2.8,7,7,0,0,0-1.3-2.4,6.34,6.34,0,0,0-2.3-1.6A6.71,6.71,0,0,0,172.3,22Z" transform="translate(0 0)"/><path class="cls-1" d="M222,23.8a2.17,2.17,0,0,1-.9.8,2.13,2.13,0,0,1-1.2.3,2.3,2.3,0,0,1-1.4-.4c-.4-.3-1-.6-1.5-.9a22,22,0,0,0-2.1-.9,8.72,8.72,0,0,0-3-.4,9.35,9.35,0,0,0-3.9.8,7.29,7.29,0,0,0-2.7,2.2,9.4,9.4,0,0,0-1.6,3.5,17,17,0,0,0-.5,4.7c0,3.6.8,6.4,2.3,8.4a7.61,7.61,0,0,0,6.3,2.9,16.59,16.59,0,0,0,2.4-.2,4.28,4.28,0,0,0,1.7-.6,5.67,5.67,0,0,0,1.3-.8,8.75,8.75,0,0,0,1-.8c.3-.2.7-.4,1-.6a3.59,3.59,0,0,1,1.1-.2,2.2,2.2,0,0,1,1.8.8l2.9,3.5a18.08,18.08,0,0,1-3.4,2.9,14.65,14.65,0,0,1-3.8,1.8,18.32,18.32,0,0,1-3.9.9,26.93,26.93,0,0,1-4,.3,17.47,17.47,0,0,1-6.5-1.2A14.25,14.25,0,0,1,198,47a16.49,16.49,0,0,1-3.7-5.8,21.26,21.26,0,0,1-1.4-7.8,21.92,21.92,0,0,1,1.2-7.3,17,17,0,0,1,3.5-5.8,18.48,18.48,0,0,1,5.8-3.9,21.42,21.42,0,0,1,7.9-1.4,19,19,0,0,1,7.5,1.3,17.17,17.17,0,0,1,5.8,3.8Z" transform="translate(0 0)"/><path class="cls-1" d="M230,51.5V0h10V19.4a20.24,20.24,0,0,1,4.6-3,15.67,15.67,0,0,1,6-1.1,13.33,13.33,0,0,1,5.4,1,11.54,11.54,0,0,1,4,2.8,10.67,10.67,0,0,1,2.4,4.3,19.22,19.22,0,0,1,.8,5.5V51.5h-10V28.9a6.53,6.53,0,0,0-1.5-4.6,5.44,5.44,0,0,0-4.3-1.6,9,9,0,0,0-4,.9,15.6,15.6,0,0,0-3.5,2.4V51.6H230Z" transform="translate(0 0)"/><path class="cls-2" d="M269.7,46.5a4.64,4.64,0,0,1,.4-2.1,4.34,4.34,0,0,1,1.2-1.7,5.67,5.67,0,0,1,1.8-1.2,6.81,6.81,0,0,1,4.6,0,5.67,5.67,0,0,1,1.8,1.2,6.57,6.57,0,0,1,1.2,1.7,5.37,5.37,0,0,1,.5,2.1,5.45,5.45,0,0,1-.5,2.2,5.23,5.23,0,0,1-1.2,1.7,4.18,4.18,0,0,1-1.8,1.1,6.81,6.81,0,0,1-4.6,0,7.84,7.84,0,0,1-1.8-1.1,6.57,6.57,0,0,1-1.2-1.7A5.38,5.38,0,0,1,269.7,46.5Z" transform="translate(0 0)"/><path class="cls-1" d="M324.6,41.2a1.78,1.78,0,0,1,1,.4l2.8,2.9a22,22,0,0,1-7.8,5.5,27.72,27.72,0,0,1-11,2,28,28,0,0,1-10.2-1.8,21.37,21.37,0,0,1-7.8-5.2,24.14,24.14,0,0,1-5-8,28.19,28.19,0,0,1-1.8-10.3,26.6,26.6,0,0,1,1.9-10.3,23.08,23.08,0,0,1,5.2-8A22.6,22.6,0,0,1,300,3.2a28.73,28.73,0,0,1,10.4-1.8,26.8,26.8,0,0,1,9.8,1.7,26.1,26.1,0,0,1,7.5,4.6l-2.3,3.1a1.7,1.7,0,0,1-.6.6c-.2.2-.5.2-.9.2a2.69,2.69,0,0,1-1.6-.7,13.7,13.7,0,0,0-2.5-1.5A15,15,0,0,0,316,7.9a21.88,21.88,0,0,0-5.6-.7A19.5,19.5,0,0,0,303,8.5a16.49,16.49,0,0,0-5.8,3.9,17.54,17.54,0,0,0-3.8,6.2,23.52,23.52,0,0,0-1.3,8.2,24.07,24.07,0,0,0,1.4,8.3,17.1,17.1,0,0,0,3.8,6.1A15.85,15.85,0,0,0,303,45a18.66,18.66,0,0,0,7.1,1.3,25.85,25.85,0,0,0,4.2-.3,19.82,19.82,0,0,0,3.5-.8,13,13,0,0,0,2.9-1.4,23.43,23.43,0,0,0,2.7-2A1.73,1.73,0,0,1,324.6,41.2Z" transform="translate(0 0)"/><path class="cls-1" d="M343.3,5.5a3.29,3.29,0,0,1-.4,1.7,7.1,7.1,0,0,1-1,1.4,5.61,5.61,0,0,1-1.5,1,5.55,5.55,0,0,1-3.6,0,3.32,3.32,0,0,1-1.4-1,7.1,7.1,0,0,1-1-1.4,4.71,4.71,0,0,1-.4-1.7,3.29,3.29,0,0,1,.4-1.7,4.51,4.51,0,0,1,1-1.4,7.1,7.1,0,0,1,1.4-1,4.84,4.84,0,0,1,1.8-.3,5.66,5.66,0,0,1,1.8.3,3.07,3.07,0,0,1,1.5,1,4.51,4.51,0,0,1,1,1.4A3.29,3.29,0,0,1,343.3,5.5Zm-1.3,11v35h-6.5v-35Z" transform="translate(0 0)"/><path class="cls-1" d="M363.9,52a9.38,9.38,0,0,1-6.7-2.3c-1.6-1.5-2.3-3.8-2.3-6.7V21.6h-4.4a1.69,1.69,0,0,1-1-.3,1.16,1.16,0,0,1-.4-1V17.8l6-.7,1.5-10.8a1.37,1.37,0,0,1,.5-.8,1.69,1.69,0,0,1,1-.3h3.3V17.3h10.7v4.5H361.4v21a4.52,4.52,0,0,0,1.1,3.3,4.17,4.17,0,0,0,2.9,1.1,4.84,4.84,0,0,0,1.8-.3c.5-.2.9-.4,1.3-.6a3.49,3.49,0,0,0,.9-.6,1.33,1.33,0,0,1,.7-.3,1.21,1.21,0,0,1,.9.6l1.9,2.9a11.33,11.33,0,0,1-4,2.3A17.4,17.4,0,0,1,363.9,52Z" transform="translate(0 0)"/><path class="cls-1" d="M389.9,61.8a3.13,3.13,0,0,1-.8,1.1,2.08,2.08,0,0,1-1.5.4h-4.8l6.7-13.9-15.2-33h5.6a1.7,1.7,0,0,1,1.3.4,2.76,2.76,0,0,1,.7.9l9.9,22a8.8,8.8,0,0,1,.5,1.5,8.33,8.33,0,0,1,.4,1.5c.3-1,.7-2.1,1.1-3.1l9.6-22a1.6,1.6,0,0,1,.7-.9,2.45,2.45,0,0,1,1.2-.4h5.1Z" transform="translate(0 0)"/></svg>